<?xml version="1.0" standalone="no"?>
<!DOCTYPE svg PUBLIC "-//W3C//DTD SVG 20010904//EN"
 "http://www.w3.org/TR/2001/REC-SVG-20010904/DTD/svg10.dtd">
<svg version="1.0" xmlns="http://www.w3.org/2000/svg"
 width="2541.000000pt" height="713.000000pt" viewBox="0 0 2541.000000 713.000000"
 preserveAspectRatio="xMidYMid meet">

<g transform="translate(0.000000,713.000000) scale(0.100000,-0.100000)"
fill="#000000" stroke="none">
<path d="M1898 7102 c-18 -17 -52 -35 -74 -41 -46 -12 -76 -40 -97 -92 -8 -19
-28 -51 -44 -70 -43 -49 -61 -88 -72 -159 -9 -55 -19 -74 -89 -168 -105 -143
-134 -185 -171 -260 -17 -34 -46 -86 -65 -115 -18 -28 -39 -69 -45 -89 -16
-48 -29 -56 -37 -23 -5 21 0 33 24 58 34 36 45 71 66 227 16 121 10 191 -26
290 -13 36 -27 71 -31 78 -15 24 -46 12 -95 -37 -50 -50 -62 -80 -62 -159 0
-18 -9 -78 -21 -134 -12 -56 -18 -115 -15 -133 4 -17 24 -61 46 -98 22 -36 40
-76 40 -89 0 -13 11 -54 25 -93 23 -65 23 -71 9 -100 -9 -16 -58 -142 -110
-280 -52 -137 -97 -252 -100 -255 -6 -5 -1 29 18 137 10 54 9 73 -9 147 -29
116 -76 210 -130 260 -24 23 -69 65 -100 94 -48 46 -58 51 -70 40 -12 -12 -11
-24 3 -84 9 -38 20 -141 24 -229 5 -88 14 -178 20 -200 23 -77 71 -164 106
-192 19 -15 52 -43 74 -61 l39 -34 -5 -126 c-6 -137 9 -482 26 -601 6 -40 8
-76 5 -79 -13 -14 -26 21 -49 138 -13 70 -36 149 -51 180 -15 30 -34 70 -43
89 -9 19 -53 74 -97 122 -44 48 -102 115 -129 149 -53 67 -83 76 -78 25 1 -17
6 -87 11 -157 11 -148 28 -210 77 -266 19 -23 44 -69 55 -104 32 -97 55 -120
184 -184 105 -51 155 -91 155 -121 0 -4 7 -21 16 -38 15 -28 48 -105 166 -400
50 -124 92 -270 84 -291 -3 -8 4 -35 14 -60 l20 -46 -37 30 c-74 60 -161 158
-187 212 -14 30 -37 96 -52 145 -29 104 -52 143 -143 241 -36 39 -84 91 -106
115 -45 49 -192 158 -271 201 -29 16 -77 37 -109 48 -31 11 -82 33 -113 49
-113 59 -253 114 -264 103 -18 -18 2 -72 54 -140 37 -49 60 -93 83 -162 42
-125 56 -151 116 -213 28 -29 58 -70 68 -92 21 -47 252 -277 351 -350 99 -73
140 -87 239 -86 46 1 87 4 92 7 5 3 89 -71 187 -165 148 -142 179 -177 188
-211 6 -22 8 -40 4 -40 -4 0 -45 37 -91 83 -93 91 -195 171 -247 193 -54 22
-114 18 -140 -9 -12 -13 -22 -31 -22 -40 0 -41 200 -304 247 -323 47 -20 207
-19 238 2 13 9 29 12 36 8 6 -3 26 -39 45 -78 38 -81 41 -76 -65 -96 -107 -19
-187 -67 -231 -137 l-28 -44 -6 28 c-3 15 -8 45 -12 66 -3 20 -9 37 -13 37 -3
0 -136 -24 -296 -54 l-290 -53 3 -48 c6 -116 101 -461 182 -665 384 -956 1206
-1678 2198 -1930 676 -171 1397 -117 2032 152 1022 433 1762 1387 1923 2477
l13 88 -290 51 c-172 30 -293 47 -296 41 -4 -5 -12 -51 -19 -101 -11 -77 -15
-90 -25 -74 -23 40 -81 98 -120 121 -40 23 -123 48 -199 60 -32 5 -37 8 -26
21 10 12 40 14 163 12 172 -2 191 3 267 71 54 47 103 119 130 192 37 96 5 113
-130 73 -82 -25 -96 -33 -200 -120 -102 -86 -167 -131 -176 -122 -2 2 14 49
37 105 38 95 46 107 117 175 42 39 126 120 186 179 61 58 119 109 130 112 11
3 76 23 145 43 179 52 210 70 376 217 72 64 101 98 206 233 15 19 36 64 47 99
12 36 30 79 41 97 25 42 35 109 20 138 -13 24 -30 24 -115 1 -22 -6 -56 -13
-76 -16 -20 -3 -95 -41 -170 -86 -174 -106 -212 -132 -284 -199 -33 -30 -76
-66 -96 -78 -46 -28 -57 -45 -107 -163 -86 -200 -104 -231 -171 -294 -35 -33
-61 -51 -57 -41 21 57 60 211 90 353 19 88 46 198 60 243 14 44 26 90 26 102
0 18 4 19 35 14 19 -4 52 -2 72 3 21 6 56 13 77 16 32 5 55 21 114 78 41 40
92 101 114 137 21 36 55 87 74 113 43 62 56 110 44 162 -5 22 -10 97 -10 167
0 137 -9 181 -38 176 -14 -3 -18 -18 -23 -81 -7 -84 -17 -103 -66 -123 -17 -8
-51 -39 -75 -71 -24 -32 -63 -71 -87 -86 -48 -33 -75 -83 -126 -236 -17 -52
-36 -96 -41 -98 -14 -5 1 129 28 247 20 91 21 102 9 265 l-13 169 44 38 c23
21 63 44 88 51 59 16 100 60 147 154 20 43 57 107 81 142 32 48 42 70 37 88
-3 13 -10 83 -16 156 -12 169 -18 176 -94 116 -31 -24 -79 -62 -108 -85 -48
-37 -52 -44 -59 -95 -8 -68 -20 -99 -59 -155 -22 -32 -32 -61 -36 -102 -3 -31
-13 -70 -21 -87 l-16 -30 -12 76 c-14 94 -84 351 -124 462 -17 44 -30 93 -30
108 0 39 58 119 103 142 64 33 70 49 64 190 -4 86 -13 155 -31 223 -14 54 -28
116 -31 136 -4 24 -14 42 -27 49 -18 10 -27 5 -69 -37 -50 -49 -57 -63 -104
-217 l-28 -88 23 -75 c22 -77 21 -124 -4 -124 -31 0 -296 347 -297 389 0 14 0
58 1 96 1 62 -3 76 -29 117 -34 54 -79 82 -206 131 -49 19 -108 44 -130 55
-22 11 -73 28 -112 37 -60 15 -76 15 -88 5 -20 -17 -18 -21 53 -121 33 -46 79
-122 104 -169 l44 -85 89 -37 c50 -21 117 -43 149 -50 54 -12 63 -18 109 -73
28 -33 88 -109 133 -170 45 -60 105 -132 133 -160 50 -48 81 -113 81 -168 0
-17 -4 -15 -34 11 -19 16 -50 35 -69 41 -24 8 -43 26 -65 60 -56 91 -174 148
-216 105 -23 -22 -21 -34 24 -120 32 -60 37 -75 23 -71 -10 4 -52 18 -93 33
-97 34 -269 44 -375 21 -38 -8 -74 -12 -79 -10 -17 11 20 176 46 210 16 21 28
5 28 -38 0 -37 2 -40 23 -34 42 13 61 41 61 92 1 44 -1 48 -39 73 -56 37 -170
83 -206 83 -34 0 -71 -32 -121 -104 -18 -27 -36 -49 -40 -49 -4 0 -16 13 -27
29 -55 77 -194 64 -285 -26 -43 -43 -64 -97 -46 -118 17 -20 34 -19 55 5 10
11 36 25 57 32 33 10 41 9 55 -5 38 -38 -43 -107 -126 -107 -30 0 -49 8 -86
39 -53 44 -81 51 -207 51 -86 0 -87 0 -130 37 -69 60 -187 194 -226 257 -29
46 -37 70 -40 119 -3 52 0 67 20 97 47 69 167 121 236 104 72 -18 68 -70 -13
-150 l-54 -54 23 -27 c20 -23 30 -26 75 -25 85 2 159 61 182 145 14 51 6 148
-16 200 -23 56 -88 122 -148 148 -45 21 -68 24 -167 24 -103 0 -121 -3 -170
-26 -30 -14 -82 -47 -114 -74 l-59 -48 5 45 c3 25 17 70 31 101 21 47 23 58
12 67 -19 16 -53 -9 -148 -109 l-75 -80 -52 60 c-29 34 -76 79 -103 101 -45
35 -52 37 -65 24 -12 -12 -13 -18 -4 -29 15 -18 52 -124 52 -149 0 -15 -10
-10 -53 25 -29 23 -77 54 -107 67 -48 22 -69 25 -170 25 -106 0 -120 -2 -172
-28 -107 -52 -161 -142 -162 -267 0 -87 23 -143 76 -183 70 -53 165 -56 196
-6 12 19 9 25 -32 64 -81 78 -93 131 -36 155 54 22 167 -14 228 -73 93 -90 56
-207 -132 -413 -108 -117 -120 -124 -231 -124 -110 0 -141 -8 -201 -54 -56
-43 -96 -46 -162 -15 -52 26 -74 62 -50 85 21 21 68 11 108 -23 58 -48 89 -9
51 66 -37 72 -123 121 -212 121 -47 0 -55 -4 -92 -41 l-41 -41 -23 29 c-73 89
-98 115 -119 123 -48 19 -251 -74 -268 -121 -17 -48 14 -110 62 -124 20 -6 22
-3 22 34 0 82 37 51 64 -54 15 -56 21 -125 12 -125 -3 0 -35 7 -73 16 -85 20
-280 14 -363 -11 -169 -52 -256 -146 -267 -290 -7 -77 17 -172 60 -243 97
-161 314 -198 421 -72 49 59 30 80 -74 80 -88 0 -132 19 -167 70 -34 49 -30
95 11 136 29 29 41 34 82 34 61 0 125 -31 162 -78 63 -79 133 -255 192 -477
38 -144 49 -218 58 -402 8 -151 8 -153 37 -184 34 -35 84 -64 93 -54 4 4 8
328 10 721 l3 714 1439 0 1439 0 3 -714 c2 -393 6 -718 11 -722 9 -9 40 8 86
45 l35 28 8 149 c11 195 29 312 72 461 74 257 136 393 207 457 49 45 76 56
136 56 38 0 50 -5 79 -34 41 -41 45 -86 11 -137 -32 -49 -79 -69 -160 -69
-115 0 -133 -24 -67 -90 80 -80 205 -87 312 -19 88 57 145 160 155 279 6 70 6
71 31 65 16 -4 28 -1 33 7 6 10 18 9 56 -5 26 -9 62 -17 80 -17 40 0 87 -54
108 -122 39 -132 75 -351 79 -480 3 -73 9 -164 16 -202 14 -86 8 -132 -41
-319 -21 -79 -38 -20 -49 168 -10 164 -25 209 -104 299 -67 76 -227 189 -261
184 -28 -4 -30 -38 -7 -101 11 -28 32 -105 47 -170 21 -91 35 -131 62 -170 20
-29 44 -77 54 -107 23 -65 57 -103 121 -136 57 -29 108 -98 108 -146 0 -18 -9
-62 -20 -97 -20 -62 -80 -288 -104 -386 l-12 -50 -23 75 c-21 68 -22 81 -12
144 6 37 16 77 21 87 19 35 9 74 -35 143 -25 39 -50 88 -56 110 -21 77 -31 96
-74 135 -48 44 -133 91 -164 91 -31 0 -35 -38 -16 -125 15 -64 15 -84 5 -118
-11 -39 -10 -43 50 -166 75 -154 96 -182 154 -209 43 -21 46 -25 71 -103 14
-45 23 -89 20 -98 -3 -10 2 -26 10 -37 8 -10 15 -33 15 -51 0 -40 -61 -211
-98 -271 -39 -65 -136 -167 -151 -158 -16 10 -4 94 27 184 20 61 24 87 19 145
-4 61 -12 86 -63 186 -49 96 -72 129 -137 194 -58 59 -83 78 -100 75 -22 -3
-22 -4 -19 -163 3 -132 1 -165 -12 -190 -22 -41 -20 -63 9 -142 34 -89 82
-161 144 -213 35 -30 54 -56 65 -88 9 -25 16 -47 16 -48 0 -1 -89 -86 -197
-188 l-197 -186 -18 29 c-28 43 -97 234 -124 340 -29 112 -50 271 -60 440 l-7
123 -69 44 c-37 24 -72 44 -77 44 -5 0 -11 -141 -14 -317 -4 -276 -7 -330 -25
-404 -70 -295 -212 -545 -422 -742 -197 -186 -463 -319 -725 -363 -135 -23
-165 -38 -207 -102 l-35 -54 -38 54 c-38 54 -90 88 -136 88 -41 0 -204 38
-286 66 -105 36 -258 113 -351 176 -159 110 -334 300 -429 467 -146 257 -193
481 -193 927 0 112 -3 204 -6 204 -3 0 -37 -19 -74 -42 l-68 -43 -7 -95 c-18
-271 -40 -408 -92 -575 -29 -94 -102 -265 -113 -265 -4 0 -97 86 -207 190
-188 178 -201 193 -205 230 -3 35 1 44 32 72 20 18 45 40 58 48 14 10 27 37
37 75 15 59 37 297 30 332 -2 10 -9 66 -16 126 -7 59 -17 115 -24 124 -17 23
-44 10 -57 -29 -7 -18 -27 -62 -46 -98 -74 -138 -108 -287 -92 -396 13 -91 13
-157 0 -149 -18 11 -68 119 -75 161 -19 112 -40 195 -65 249 -54 121 -64 154
-52 180 6 13 31 34 54 46 65 33 125 76 133 96 4 10 17 52 30 93 13 41 35 106
49 144 53 139 42 316 -20 316 -17 0 -32 -13 -58 -52 -39 -62 -96 -121 -147
-155 l-36 -24 -22 -177 c-24 -191 -28 -212 -40 -212 -14 0 -100 221 -116 295
-8 38 -20 120 -26 182 -12 103 -11 114 5 132 11 12 29 19 50 18 21 -1 45 8 65
24 17 13 44 35 61 47 39 31 57 67 85 171 13 47 41 123 64 169 49 102 64 188
35 209 -31 22 -78 15 -130 -19 -51 -35 -59 -47 -69 -92 -3 -16 -30 -54 -60
-85 -70 -73 -85 -117 -85 -241 0 -81 -3 -102 -19 -121 -19 -23 -19 -23 -27 86
-12 143 -9 304 5 383 20 105 105 350 166 475 56 114 61 120 129 171 91 67 176
122 248 158 88 46 176 132 210 205 32 71 35 108 12 141 -19 28 -36 28 -60 1
-21 -23 -89 -56 -174 -84 -64 -20 -89 -41 -137 -110 -44 -63 -37 -37 32 120
46 105 65 134 145 228 81 93 96 107 124 107 45 1 107 32 176 89 34 28 85 66
114 85 30 19 65 47 79 62 26 27 60 109 72 171 9 44 -19 59 -121 68 -81 6 -82
6 -116 -23z m160 -27 c48 -8 51 -17 27 -84 -21 -62 -47 -89 -138 -148 -45 -30
-96 -68 -113 -84 -32 -31 -104 -56 -104 -37 0 18 83 89 123 105 27 11 48 31
72 68 18 29 49 65 69 80 20 15 33 31 30 36 -12 20 -49 7 -85 -31 -23 -24 -48
-40 -61 -40 -33 0 -42 -9 -69 -61 -24 -46 -124 -147 -136 -136 -13 14 11 81
43 116 18 21 45 64 59 95 21 47 29 56 51 56 31 0 59 14 103 52 24 21 40 28 60
24 14 -3 45 -8 69 -11z m3523 -222 c49 -18 62 -36 52 -73 -5 -20 -5 -20 -33 0
-28 20 -86 90 -74 90 3 0 28 -8 55 -17z m-89 -40 c53 -44 60 -56 41 -70 -22
-17 -53 -17 -53 0 0 7 -11 28 -25 47 -14 19 -25 38 -25 42 0 16 29 7 62 -19z
m229 -13 c5 0 30 -19 54 -41 38 -35 45 -47 45 -80 0 -67 -30 -62 -104 18 -42
46 -47 56 -41 83 5 22 11 30 22 26 8 -3 19 -6 24 -6z m-78 -112 c48 -32 107
-90 107 -105 0 -19 -22 -16 -121 18 -103 36 -127 60 -89 91 30 24 65 23 103
-4z m-4415 -60 c29 -89 35 -121 22 -113 -5 3 -10 12 -10 19 0 6 -5 17 -12 24
-19 19 -38 -6 -38 -52 0 -22 -9 -60 -19 -82 -13 -28 -17 -55 -14 -85 3 -24 0
-55 -5 -69 l-10 -25 -16 37 c-9 21 -16 54 -16 74 0 52 19 212 31 257 10 37 40
77 58 77 5 0 18 -28 29 -62z m5117 -40 c3 -24 17 -81 30 -128 24 -86 35 -271
17 -296 -4 -5 -23 -20 -42 -31 -20 -12 -46 -33 -59 -47 -14 -14 -28 -26 -33
-26 -17 0 -7 57 19 105 19 34 30 73 35 125 4 41 9 86 10 99 3 27 -10 35 -31
22 -10 -7 -17 -36 -20 -93 -9 -130 -29 -143 -61 -39 l-22 68 21 59 c11 33 25
78 31 102 10 39 71 122 90 122 5 0 11 -19 15 -42z m-2544 -240 l99 -198 -220
0 -220 0 108 215 c95 192 108 213 120 198 8 -10 58 -107 113 -215z m-2552 30
c0 -18 -8 -58 -18 -88 l-18 -55 -6 35 c-17 99 -16 109 6 125 31 22 37 19 36
-17z m435 -98 c14 -29 14 -30 -8 -30 -47 0 -142 -59 -195 -120 -50 -57 -95
-90 -123 -90 -7 0 13 26 44 58 31 31 74 79 95 105 28 36 55 56 103 77 36 16
66 30 67 30 1 0 8 -13 17 -30z m-93 -141 c-24 -20 -41 -24 -41 -11 0 10 53 42
60 35 3 -2 -6 -13 -19 -24z m4331 -32 c40 -31 43 -37 40 -74 -3 -34 1 -44 25
-62 16 -13 35 -20 47 -17 31 8 102 -40 128 -87 8 -16 7 -17 -10 -8 -10 5 -24
17 -32 25 -7 9 -21 16 -32 16 -35 0 -16 -32 49 -84 35 -27 61 -51 59 -53 -1
-2 -19 4 -39 12 -20 8 -52 15 -71 15 -29 0 -41 8 -75 48 -22 26 -57 80 -76
120 -20 40 -49 94 -65 119 -45 71 -21 85 52 30z m-5106 -235 c19 -18 43 -50
53 -70 25 -48 81 -209 81 -230 0 -30 -21 -92 -30 -92 -5 0 -19 18 -30 40 -36
71 -63 41 -36 -39 9 -28 16 -55 16 -60 0 -21 -35 -11 -63 18 -45 49 -58 102
-67 276 -5 88 -12 175 -16 194 l-7 34 32 -19 c18 -10 48 -34 67 -52z m5980
-214 c9 -86 9 -91 -14 -121 -13 -18 -46 -76 -74 -129 -52 -103 -95 -158 -122
-158 -26 0 -19 36 14 68 29 29 37 62 24 96 -12 32 -34 15 -63 -48 -49 -109
-68 -99 -48 27 9 53 22 96 36 115 36 51 61 115 61 159 0 31 5 45 19 52 10 6
37 26 61 46 l43 36 27 -26 c24 -23 28 -38 36 -117z m-5448 -417 c-3 -41 -14
-78 -36 -120 -17 -33 -38 -88 -47 -123 -28 -112 -45 -155 -70 -178 -14 -13
-28 -21 -31 -17 -10 9 55 227 76 257 22 32 26 64 8 58 -29 -9 -85 -112 -103
-187 -29 -124 -55 -138 -55 -28 0 87 20 135 89 218 27 32 52 73 56 90 5 22 20
39 53 60 25 16 50 29 55 29 5 0 7 -27 5 -59z m4745 -132 c54 -38 145 -141 162
-183 8 -19 15 -52 15 -72 0 -32 -2 -35 -16 -23 -9 7 -33 38 -54 69 -47 69 -67
87 -81 73 -8 -8 1 -27 29 -65 51 -66 112 -194 119 -248 3 -22 3 -40 1 -40 -3
0 -26 9 -51 20 -39 17 -48 27 -56 58 -6 20 -31 71 -55 112 -25 41 -48 89 -51
105 -3 17 -15 69 -27 117 -29 126 -19 138 65 77z m-5482 -90 c6 -12 44 -54 83
-93 86 -85 156 -213 156 -285 0 -23 -4 -41 -9 -39 -23 8 -122 144 -138 189
-19 52 -43 66 -43 24 0 -35 -12 -31 -54 15 -35 39 -36 42 -36 118 0 43 3 82 7
85 11 12 22 8 34 -14z m6214 -169 c-3 -11 -39 -50 -80 -88 -78 -71 -98 -106
-110 -185 -4 -28 -18 -60 -32 -77 -35 -42 -101 -92 -112 -86 -13 9 34 178 69
246 21 40 40 62 73 81 27 17 53 43 68 70 13 24 37 50 54 58 17 8 37 17 45 21
19 9 33 -14 25 -40z m22 -126 c-3 -26 -15 -58 -32 -79 -15 -20 -49 -69 -75
-108 -62 -92 -125 -164 -161 -182 -30 -16 -79 -20 -79 -7 0 4 35 41 79 82 75
71 80 78 91 135 6 33 14 69 17 80 3 11 37 50 76 87 80 75 94 74 84 -8z m-6082
-106 c48 -54 65 -84 65 -118 0 -17 -4 -18 -30 -9 -52 19 -100 96 -100 162 0
28 16 20 65 -35z m713 -75 c2 -48 -3 -79 -24 -135 -14 -40 -39 -111 -56 -158
-32 -93 -55 -124 -107 -146 -45 -19 -44 -19 -39 24 5 35 63 148 127 247 32 50
43 83 29 92 -14 8 -36 -19 -95 -118 -26 -43 -49 -79 -53 -79 -3 0 -3 36 1 79
l7 79 88 90 c49 49 96 89 104 88 11 -1 16 -17 18 -63z m4484 18 c56 -35 73
-60 94 -132 9 -30 35 -86 59 -124 42 -68 43 -73 34 -115 -5 -24 -14 -50 -19
-59 -7 -13 -10 -11 -15 11 -13 49 -53 41 -46 -9 4 -32 -23 -29 -47 5 -11 15
-36 59 -55 99 -20 39 -41 74 -46 77 -16 11 -23 82 -10 104 10 17 9 31 -6 80
-17 57 -16 92 3 92 4 0 29 -13 54 -29z m-5677 -131 c3 -5 2 -10 -4 -10 -5 0
-13 5 -16 10 -3 6 -2 10 4 10 5 0 13 -4 16 -10z m203 -76 c36 -14 82 -60 82
-80 0 -21 -45 0 -107 49 -75 60 -68 69 25 31z m-184 -117 c12 -9 17 -23 14
-42 l-3 -30 -27 27 c-17 16 -25 33 -22 42 7 19 15 20 38 3z m6600 -23 c24 -9
20 -51 -7 -69 -34 -22 -84 -30 -102 -15 -49 41 41 110 109 84z m-6063 -130
c98 -106 114 -135 165 -298 34 -109 36 -122 23 -145 -13 -22 -24 -27 -83 -34
-80 -10 -128 3 -210 58 -74 49 -192 159 -211 197 -13 28 -13 33 0 48 19 21 19
47 0 80 -26 46 -18 54 29 26 80 -47 99 -31 65 58 -11 32 -18 60 -15 63 3 3 23
-6 45 -21 52 -36 76 -32 77 14 1 19 2 39 3 43 3 20 32 -4 112 -89z m5803 -10
l-7 -36 47 7 c50 8 60 -3 30 -36 -26 -28 -8 -41 33 -24 19 8 40 15 45 15 20 0
18 -30 -3 -59 -18 -24 -20 -34 -11 -43 7 -7 12 -20 12 -30 0 -23 -88 -112
-136 -136 -41 -20 -243 -72 -281 -72 -30 0 -29 13 5 85 16 33 48 103 71 155
39 89 47 99 114 152 40 31 76 57 80 57 4 1 5 -15 1 -35z m-846 -133 c22 -31
59 -93 83 -139 41 -79 43 -88 44 -167 0 -119 -12 -124 -69 -32 -26 41 -56 101
-67 133 -25 71 -36 86 -59 79 -24 -8 -30 19 -30 133 l0 93 30 -22 c16 -12 47
-47 68 -78z m1187 44 c0 -5 -15 -11 -32 -13 -32 -3 -45 11 -20 22 19 8 52 2
52 -9z m-5385 -108 c0 -16 -3 -17 -15 -7 -8 7 -15 24 -15 39 1 25 1 25 15 7 8
-11 15 -29 15 -39z m-73 -133 c-3 -19 -13 -44 -21 -56 -16 -22 -16 -21 -16 20
0 49 16 86 32 76 6 -4 8 -21 5 -40z m4258 -98 c58 -125 64 -151 40 -182 -15
-18 -16 -18 -46 16 -39 44 -89 148 -96 200 -6 41 18 95 38 88 5 -2 34 -56 64
-122z m-4185 33 c0 -33 -5 -92 -12 -130 -9 -59 -15 -73 -41 -91 -24 -17 -31
-18 -38 -7 -13 21 -11 47 11 124 25 87 62 175 73 168 4 -2 7 -31 7 -64z m-512
-307 c12 -8 22 -21 22 -29 0 -13 -9 -14 -52 -9 -28 4 -55 9 -60 12 -9 6 -11
48 -2 57 7 7 61 -11 92 -31z m5 -98 c33 -11 72 -39 127 -91 44 -41 80 -80 80
-85 0 -6 -27 -9 -70 -6 -80 4 -97 16 -161 110 -37 54 -49 88 -31 88 5 0 30 -7
55 -16z m5337 -19 c0 -2 -10 -30 -21 -61 -29 -76 -137 -188 -192 -198 -73 -14
-79 24 -9 55 75 34 77 35 80 51 5 26 -54 41 -89 23 -23 -13 -29 -13 -29 -2 0
18 57 71 99 92 53 27 161 54 161 40z m-4692 -359 c117 -112 115 -102 39 -189
l-42 -49 -71 104 c-69 100 -164 297 -164 341 0 22 11 12 238 -207z m4097 112
c-37 -98 -56 -135 -127 -251 l-61 -98 -28 27 c-44 42 -84 104 -73 113 206 195
309 289 312 286 2 -2 -8 -37 -23 -77z m290 72 c-3 -5 -11 -10 -16 -10 -6 0 -7
5 -4 10 3 6 11 10 16 10 6 0 7 -4 4 -10z m465 -265 c118 -21 216 -39 218 -40
5 -5 -28 -187 -54 -295 -254 -1049 -1025 -1903 -2036 -2255 -704 -246 -1501
-228 -2191 49 -985 395 -1700 1236 -1932 2270 -14 65 -25 128 -23 139 3 19 24
25 238 64 129 23 240 43 246 43 6 0 17 -28 24 -62 61 -313 174 -608 340 -886
200 -336 534 -672 880 -887 117 -72 342 -181 474 -230 336 -124 731 -182 1074
-157 377 27 681 108 1007 267 427 209 778 515 1046 914 97 145 226 396 284
556 40 109 107 367 126 484 11 72 12 73 38 68 14 -3 123 -22 241 -42z m-5017
-135 c60 -23 92 -51 84 -74 -7 -17 -95 -46 -139 -46 -77 0 -153 64 -128 109 5
11 15 22 22 24 30 12 111 5 161 -13z m4399 3 c27 -24 22 -58 -12 -87 -53 -44
-126 -46 -217 -6 -24 10 -43 24 -43 29 0 11 60 45 119 66 52 20 131 19 153 -2z
m-3598 -168 l6 -90 -56 57 -57 57 44 54 c52 64 52 63 63 -78z m2683 -22 c-28
-29 -52 -51 -54 -49 -2 2 -1 50 3 106 l7 102 48 -53 47 -54 -51 -52z m-2247
-612 c322 -305 633 -601 691 -657 l107 -103 -162 -153 c-88 -84 -195 -185
-237 -225 l-75 -73 -126 34 c-780 214 -1399 759 -1723 1517 -19 44 -35 83 -35
85 0 2 21 -13 48 -33 67 -51 127 -75 202 -81 l66 -4 24 -120 24 -119 35 3 c34
3 36 5 47 53 19 87 42 124 127 204 l36 34 114 -174 c63 -96 135 -199 161 -229
63 -76 44 -86 -42 -22 -77 57 -155 86 -265 97 -77 8 -89 -2 -66 -58 19 -47
236 -266 284 -287 22 -10 78 -21 125 -25 77 -6 88 -4 112 14 53 42 72 32 224
-111 230 -218 338 -308 367 -308 19 0 47 37 41 54 -2 6 -37 33 -77 61 -82 56
-186 144 -302 255 -44 42 -95 86 -112 99 -34 23 -97 125 -113 182 -8 27 -5 42
13 79 36 73 30 165 -18 260 -21 41 -58 107 -84 145 -25 39 -49 78 -53 88 -9
22 -36 33 -49 20 -20 -20 -49 -194 -39 -236 9 -42 63 -128 105 -167 14 -13 25
-33 25 -44 0 -31 -11 -66 -21 -66 -16 0 -217 275 -282 386 -4 6 40 43 106 87
62 42 126 87 142 101 28 23 31 23 50 8 10 -10 283 -266 605 -571z m2429 550
c20 -15 78 -56 129 -90 l93 -62 -50 -57 c-77 -88 -235 -239 -226 -217 41 111
45 129 45 224 0 132 -8 139 -89 77 -85 -65 -97 -84 -115 -181 -8 -47 -28 -111
-42 -142 -23 -47 -28 -73 -30 -148 -1 -53 -9 -108 -18 -135 -9 -24 -15 -49
-12 -56 5 -12 -51 -69 -94 -96 -14 -9 -79 -67 -145 -129 -78 -74 -141 -125
-178 -144 -76 -38 -99 -67 -95 -119 2 -22 9 -41 16 -44 7 -2 57 38 110 90 53
52 160 151 237 220 77 69 151 137 164 151 20 22 26 24 48 14 18 -8 53 -8 136
2 123 13 192 38 261 95 23 18 66 49 98 69 48 31 59 44 72 85 19 57 13 80 -23
93 -29 11 -126 4 -216 -17 -76 -17 -75 -18 -75 5 0 32 241 321 268 321 7 0 42
-28 76 -62 64 -64 96 -128 96 -189 0 -28 15 -39 55 -39 27 0 29 7 61 156 l17
82 61 4 c69 4 156 40 213 87 20 17 39 29 41 27 8 -9 -106 -256 -171 -369 -354
-621 -941 -1069 -1625 -1242 l-103 -26 -227 217 c-125 119 -227 221 -227 226
0 11 1406 1346 1419 1347 4 1 25 -12 45 -28z m-79 -256 c0 -92 -24 -182 -67
-254 -18 -30 -33 -57 -33 -60 0 -13 -60 -39 -66 -30 -9 15 6 90 28 132 11 21
25 71 33 111 17 89 30 125 57 154 38 40 48 29 48 -53z m-2958 -26 c38 -54 66
-124 55 -135 -10 -11 -45 16 -66 51 -27 46 -54 148 -38 142 7 -2 29 -28 49
-58z m828 -266 c85 -33 352 -113 382 -113 4 0 -2 20 -13 44 -27 63 -14 96 38
96 21 0 56 -11 78 -23 37 -21 40 -25 37 -62 -5 -63 -21 -116 -54 -172 -16 -29
-28 -63 -26 -75 3 -23 4 -23 216 -26 l212 -2 0 36 c0 20 -9 48 -20 64 -26 37
-46 93 -55 157 -7 51 -6 51 32 77 40 28 100 35 121 14 17 -17 15 -69 -4 -96
-9 -13 -14 -25 -11 -28 12 -12 300 74 472 141 l20 8 -20 -20 c-11 -11 -150
-143 -310 -293 -159 -150 -324 -307 -366 -347 l-75 -74 -335 317 c-358 338
-450 428 -434 423 6 -2 57 -23 115 -46z m-1065 -34 c33 -11 71 -28 85 -39 l25
-20 -77 7 c-67 5 -78 4 -78 -10 0 -15 7 -19 65 -32 16 -3 54 -22 85 -40 30
-18 82 -43 115 -55 33 -12 69 -28 80 -36 20 -15 20 -15 -4 -35 -16 -13 -33
-18 -55 -15 -17 3 -53 8 -79 11 -40 5 -56 14 -90 49 -23 23 -67 60 -97 83 -46
35 -107 103 -134 150 -9 17 82 7 159 -18z m3490 7 c0 -10 -9 -24 -20 -30 -11
-6 -48 -28 -82 -49 -75 -47 -125 -63 -227 -72 l-78 -8 24 36 c13 20 45 54 70
77 36 31 55 40 85 41 21 0 61 7 88 14 28 7 70 12 95 12 37 -2 45 -5 45 -21z
m28 -63 c-7 -2 -49 -33 -95 -69 -54 -41 -104 -71 -143 -84 -72 -23 -235 -32
-242 -13 -7 19 35 31 145 42 100 11 155 27 206 64 47 33 130 76 136 70 3 -3 0
-8 -7 -10z m-1583 -947 c110 -103 198 -192 195 -196 -9 -15 -235 -34 -405 -34
-172 0 -414 20 -408 34 6 14 403 389 410 387 4 -1 98 -87 208 -191z"/>
<path d="M831 2609 c-73 -21 -134 -39 -136 -41 -1 -2 9 -39 24 -83 21 -66 32
-84 60 -102 74 -50 193 -17 232 63 18 39 20 51 11 82 -6 21 -16 56 -22 80 -6
23 -16 41 -23 41 -7 -1 -72 -19 -146 -40z m137 -70 c14 -53 2 -83 -40 -105
-39 -20 -110 -23 -132 -5 -16 14 -41 89 -32 98 7 7 158 51 177 52 11 1 20 -13
27 -40z"/>
<path d="M6404 2610 c-31 -12 -62 -56 -70 -97 -9 -47 15 -96 55 -113 46 -19
81 0 117 62 32 57 53 74 78 65 43 -17 1 -127 -49 -127 -14 0 -25 -7 -28 -19
-6 -26 0 -31 37 -31 63 0 106 58 106 142 0 55 -21 85 -66 94 -50 9 -76 -8
-115 -77 -33 -60 -55 -72 -79 -44 -13 16 -7 60 12 82 6 7 21 13 34 13 27 0 44
38 23 51 -17 11 -28 10 -55 -1z"/>
<path d="M6274 2304 c-4 -14 -5 -27 -3 -29 7 -6 259 -105 269 -105 6 0 14 10
19 23 9 23 17 19 -236 120 l-43 17 -6 -26z"/>
<path d="M939 2263 c-116 -47 -136 -58 -132 -74 3 -11 10 -22 15 -25 7 -4 258
88 276 101 6 5 -10 55 -17 54 -3 0 -67 -26 -142 -56z"/>
<path d="M6221 2162 c-6 -10 -28 -61 -51 -112 -32 -72 -38 -95 -28 -101 24
-16 35 -9 53 31 10 22 21 40 24 40 4 0 57 -22 118 -49 l111 -49 11 25 c7 14
10 27 9 28 -2 1 -52 23 -113 49 -60 26 -111 49 -112 50 -2 1 5 22 14 45 14 37
15 44 2 52 -20 13 -27 11 -38 -9z"/>
<path d="M1006 2094 c-66 -29 -121 -56 -124 -59 -6 -6 70 -185 78 -185 3 0 14
6 24 13 16 12 15 16 -9 70 -15 31 -25 62 -23 68 2 6 51 31 108 56 58 25 107
47 108 48 10 9 -12 45 -26 44 -9 0 -71 -25 -136 -55z"/>
<path d="M1137 1806 c-70 -11 -128 -25 -127 -31 1 -28 13 -45 28 -41 70 18 70
18 97 -29 l27 -44 -26 -34 c-29 -38 -31 -45 -12 -70 12 -15 23 -6 116 104 94
111 102 123 91 145 -13 29 -20 29 -194 0z m95 -68 c-32 -32 -34 -32 -48 -14
-7 11 -14 23 -14 27 0 8 29 15 70 18 24 1 24 1 -8 -31z"/>
<path d="M6032 1795 c-10 -22 -4 -33 90 -145 81 -97 103 -118 114 -109 21 17
17 40 -12 70 l-27 28 27 45 c15 25 30 46 34 46 4 0 23 -4 43 -9 33 -8 38 -6
50 15 7 13 10 26 8 28 -4 4 -287 56 -306 56 -5 0 -15 -11 -21 -25z m155 -58
c6 -7 -15 -47 -25 -47 -8 0 -52 54 -52 64 0 5 70 -10 77 -17z"/>
<path d="M1401 1646 c-14 -16 -4 -43 23 -66 9 -7 16 -16 16 -21 0 -4 -43 -41
-95 -81 -52 -40 -95 -78 -95 -84 0 -6 7 -17 15 -24 13 -11 31 -1 114 63 l99
77 29 -36 c26 -33 32 -35 52 -25 15 9 19 16 13 24 -5 7 -40 51 -76 100 -37 48
-71 87 -76 87 -4 0 -13 -6 -19 -14z"/>
<path d="M5879 1568 c-99 -127 -94 -117 -73 -133 17 -13 22 -11 51 22 l31 37
100 -77 c94 -72 100 -75 116 -58 9 10 16 20 16 23 0 3 -43 38 -95 78 -52 40
-95 78 -95 85 0 7 7 18 16 25 29 25 35 46 15 64 -17 16 -21 12 -82 -66z"/>
<path d="M1520 1304 c-58 -53 -106 -99 -107 -103 -1 -3 33 -43 75 -89 75 -81
78 -83 95 -64 16 18 15 21 -38 79 -30 34 -55 65 -55 70 0 4 12 16 26 27 l26
18 54 -53 c50 -50 55 -52 71 -37 15 16 12 21 -36 74 l-52 57 25 26 26 26 59
-65 c51 -57 60 -63 75 -51 9 7 16 17 16 21 0 10 -140 160 -149 160 -3 0 -53
-43 -111 -96z"/>
<path d="M5707 1363 c-14 -17 -7 -25 96 -120 105 -97 112 -101 129 -86 10 9
17 20 16 24 -4 12 -210 199 -218 199 -4 0 -14 -8 -23 -17z"/>
<path d="M5523 1182 c-97 -82 -99 -67 18 -192 l103 -110 20 20 20 20 -42 43
-43 44 41 36 c22 21 47 37 55 37 8 0 32 -16 53 -35 l39 -35 23 25 c22 23 22
25 4 31 -10 4 -36 22 -57 41 -20 18 -42 33 -47 33 -6 0 -10 8 -10 19 0 10 -11
30 -25 45 -39 42 -82 36 -152 -22z m111 -18 c24 -23 20 -36 -24 -79 l-40 -39
-30 29 -29 28 42 38 c47 43 59 46 81 23z"/>
<path d="M1770 1082 c-118 -133 -116 -130 -95 -150 16 -16 21 -12 86 58 38 41
69 69 69 62 0 -7 -7 -61 -16 -118 -17 -104 -16 -106 4 -126 l20 -20 35 38
c169 190 167 188 147 208 -19 19 -20 19 -66 -34 -27 -29 -57 -63 -67 -77 -11
-13 -21 -22 -23 -20 -2 2 6 56 17 121 11 65 19 119 17 120 -2 1 -12 9 -23 18
-19 16 -23 13 -105 -80z"/>
<path d="M5275 980 c-44 -32 -81 -63 -83 -68 -2 -8 132 -200 163 -231 11 -11
28 -2 104 54 88 64 91 68 75 86 -18 21 -24 18 -117 -54 -21 -16 -39 -28 -41
-26 -1 2 -12 17 -24 33 l-22 29 64 47 c62 45 64 48 50 68 -15 21 -15 21 -75
-23 -34 -25 -64 -45 -68 -45 -7 1 -44 50 -39 54 69 51 128 99 128 105 0 8 -22
31 -29 31 -4 -1 -42 -27 -86 -60z"/>
<path d="M2082 968 c-13 -13 -16 -38 -4 -38 4 0 20 -11 37 -24 l30 -24 -68
-102 c-55 -82 -66 -104 -56 -116 6 -8 17 -14 24 -14 7 0 41 43 75 95 35 53 67
98 71 101 5 3 25 -6 46 -20 34 -23 37 -24 49 -8 8 9 14 20 14 24 0 3 -37 30
-82 59 -46 29 -92 58 -104 66 -16 10 -23 10 -32 1z"/>
<path d="M5091 851 l-24 -19 21 -101 c12 -56 22 -106 22 -112 0 -10 -17 3
-123 94 -50 43 -58 47 -76 35 -12 -7 -21 -16 -21 -20 0 -3 54 -52 121 -107
115 -96 121 -100 143 -86 l23 15 -28 156 c-16 86 -30 158 -31 160 -2 1 -14 -6
-27 -15z"/>
<path d="M2312 704 c-29 -57 -52 -117 -52 -133 0 -54 67 -111 130 -111 58 0
82 22 139 131 51 97 53 103 36 116 -11 7 -22 13 -27 13 -4 0 -30 -45 -58 -100
-55 -109 -78 -127 -129 -99 -43 24 -40 67 13 164 25 47 46 89 46 93 0 5 -10
14 -23 19 -22 10 -26 6 -75 -93z"/>
<path d="M2616 515 c-49 -143 -51 -155 -37 -155 5 0 16 -3 24 -6 12 -4 20 9
33 51 17 54 19 56 47 51 79 -16 90 -33 73 -117 -7 -34 -6 -37 22 -47 l29 -10
8 51 c4 29 8 63 9 77 0 14 11 38 24 54 12 16 22 43 22 61 0 20 -8 39 -22 52
-22 21 -147 73 -173 73 -7 0 -32 -57 -59 -135z m149 53 c42 -15 58 -32 51 -56
-10 -30 -34 -34 -88 -16 -53 17 -53 17 -37 63 9 24 16 31 28 26 9 -4 30 -12
46 -17z"/>
<path d="M4623 602 c-8 -5 -14 -61 -19 -170 l-7 -162 24 8 c20 8 25 17 27 54
3 44 4 45 54 63 56 20 48 23 92 -38 11 -14 18 -16 40 -7 33 12 36 5 -78 148
-85 106 -105 122 -133 104z m68 -113 c18 -26 19 -33 8 -40 -28 -18 -39 -10
-39 31 0 22 2 40 4 40 3 0 15 -14 27 -31z"/>
<path d="M4389 532 c-16 -7 -9 -49 46 -280 5 -19 10 -22 28 -16 12 3 24 8 26
10 8 7 -63 294 -73 293 -6 0 -18 -3 -27 -7z"/>
<path d="M4153 487 c-108 -19 -113 -21 -113 -45 0 -24 2 -24 49 -18 58 8 52
18 77 -137 l17 -108 26 6 c14 4 27 7 27 8 1 1 -7 55 -18 120 -11 65 -17 121
-14 124 3 3 23 9 43 12 32 5 38 10 38 30 0 14 -4 25 -10 26 -5 2 -61 -7 -122
-18z"/>
<path d="M3125 476 c-57 -58 -39 -108 56 -156 33 -17 62 -37 66 -46 9 -23 -17
-44 -54 -44 -38 0 -89 41 -80 64 5 12 -19 25 -47 26 -14 0 1 -80 19 -100 42
-46 163 -52 197 -10 10 13 18 39 18 61 0 47 -22 69 -96 99 -44 18 -54 27 -54
46 0 47 92 44 113 -4 21 -49 57 -58 57 -14 0 83 -136 137 -195 78z"/>
<path d="M3426 367 c-4 -50 -9 -120 -12 -154 l-6 -63 31 0 31 0 0 60 0 60 66
0 c81 0 100 10 115 59 9 30 9 44 -2 67 -19 38 -48 50 -140 58 l-76 6 -7 -93z
m164 18 c7 -8 10 -25 6 -40 -6 -23 -11 -25 -61 -25 l-55 0 0 40 0 40 49 0 c31
0 53 -5 61 -15z"/>
<path d="M3792 343 c-17 -60 -38 -129 -46 -155 l-15 -48 28 0 c25 0 30 5 41
45 l13 45 53 0 c54 0 54 0 70 -40 16 -39 35 -49 60 -32 8 5 -8 52 -50 149 -59
139 -62 143 -91 143 -31 0 -31 -1 -63 -107z m92 -40 c7 -20 4 -23 -23 -23 -35
0 -35 -1 -19 52 11 39 12 39 24 16 6 -13 15 -33 18 -45z"/>
<path d="M17757 6833 c-8 -10 -91 -206 -183 -437 -92 -230 -177 -430 -189
-444 -15 -17 -36 -27 -66 -31 -35 -5 -44 -10 -44 -26 0 -19 8 -20 164 -23 119
-2 167 1 172 9 13 22 -3 39 -37 39 -22 0 -37 6 -41 16 -3 9 14 68 38 132 l44
117 134 0 134 0 49 -129 c45 -118 48 -129 32 -141 -10 -7 -15 -19 -11 -29 6
-14 28 -16 176 -16 126 0 170 3 173 13 10 24 -4 37 -41 37 -79 0 -85 11 -281
500 -78 195 -151 372 -161 393 -21 41 -38 46 -62 20z m45 -428 l45 -125 -98 0
-98 0 30 83 c17 45 38 101 46 125 8 23 18 42 22 42 5 0 28 -56 53 -125z"/>
<path d="M9836 6824 c-3 -9 -6 -102 -7 -207 -2 -308 -13 -675 -22 -683 -4 -4
-26 -10 -50 -13 -33 -5 -42 -10 -42 -26 0 -19 8 -20 178 -23 156 -2 178 -1
184 14 7 20 -13 34 -49 34 -43 0 -57 10 -67 49 -5 20 -13 153 -17 296 l-7 260
94 -100 c170 -182 530 -541 561 -559 56 -34 56 -35 65 440 9 466 8 464 63 464
32 0 59 25 43 41 -6 6 -77 8 -179 7 -161 -3 -169 -4 -169 -23 0 -16 9 -21 48
-26 27 -3 52 -11 57 -19 5 -8 11 -42 14 -75 8 -90 13 -516 6 -513 -7 3 -369
375 -542 556 -115 119 -148 142 -162 106z"/>
<path d="M14897 6829 c-126 -30 -200 -119 -201 -240 0 -117 31 -162 254 -358
40 -36 79 -79 86 -97 43 -102 -22 -194 -138 -194 -86 0 -150 57 -164 145 -7
50 -22 68 -44 55 -12 -7 -16 -37 -18 -125 l-4 -115 48 -22 c75 -33 202 -36
294 -9 135 41 210 152 197 291 -9 108 -70 191 -228 311 -99 75 -130 115 -131
167 -1 74 42 112 127 112 78 0 126 -36 148 -111 10 -33 18 -44 32 -44 18 0 21
10 26 100 4 55 2 105 -3 112 -21 27 -201 41 -281 22z"/>
<path d="M12990 6823 c-200 -3 -276 -7 -281 -15 -12 -19 11 -38 45 -38 18 0
41 -6 52 -14 18 -14 19 -30 19 -403 0 -293 -3 -393 -13 -410 -8 -15 -24 -23
-50 -25 -29 -2 -37 -7 -37 -23 0 -19 9 -20 265 -27 146 -4 280 -5 297 -2 43 6
51 25 59 128 7 84 6 86 -15 86 -12 0 -24 -8 -27 -17 -28 -90 -59 -107 -181
-101 -111 5 -113 9 -113 209 l0 159 85 0 c107 0 131 -10 139 -60 6 -39 28 -57
44 -37 5 7 13 58 16 113 8 113 2 127 -42 98 -21 -14 -52 -19 -134 -22 l-108
-4 0 157 0 158 102 -8 c121 -8 127 -10 134 -44 12 -54 16 -61 34 -61 23 0 27
13 35 123 l7 87 -29 -2 c-15 -2 -152 -4 -303 -5z"/>
<path d="M19952 6823 l-283 -3 3 -23 c2 -18 11 -23 47 -28 75 -10 72 5 69
-430 -3 -419 -3 -419 -58 -419 -30 0 -53 -20 -42 -36 9 -14 545 -26 577 -14
30 11 36 30 42 128 6 84 6 84 -18 80 -18 -2 -25 -12 -32 -40 -15 -63 -35 -73
-148 -73 -138 0 -133 -6 -137 200 l-4 165 85 0 c114 0 135 -9 143 -59 7 -41
25 -58 42 -38 6 7 14 60 18 120 7 115 2 127 -39 90 -16 -15 -38 -18 -131 -18
l-111 0 0 150 0 150 99 -3 c55 -2 107 -7 117 -12 10 -6 20 -27 24 -50 5 -30
11 -40 25 -40 10 0 21 3 23 8 3 4 8 51 12 105 l7 97 -23 -2 c-13 -2 -151 -4
-307 -5z"/>
<path d="M8514 6806 c-9 -24 5 -36 42 -36 21 0 42 -8 54 -20 19 -19 20 -33 20
-287 0 -283 9 -363 48 -439 29 -56 88 -109 157 -141 55 -25 70 -28 180 -28
111 0 125 2 180 28 33 15 79 47 103 70 96 93 112 163 112 512 0 288 3 305 59
305 31 0 57 23 46 40 -4 6 -70 10 -181 10 l-175 0 3 -22 c2 -19 11 -24 46 -29
23 -3 47 -10 53 -16 7 -7 9 -119 7 -329 -3 -309 -4 -320 -26 -365 -14 -28 -39
-58 -64 -75 -38 -26 -49 -29 -128 -29 -78 0 -91 3 -129 28 -31 20 -50 44 -69
85 l-27 57 -3 309 c-2 197 1 313 7 319 5 5 27 13 48 16 29 5 38 11 38 26 0 19
-8 20 -198 23 -166 2 -198 0 -203 -12z"/>
<path d="M11034 6806 c-9 -23 4 -36 35 -36 15 0 36 -6 47 -14 18 -14 19 -30
19 -409 0 -435 2 -424 -63 -429 -29 -2 -37 -7 -37 -23 0 -19 7 -20 205 -20
198 0 205 1 205 20 0 16 -9 21 -49 26 -31 3 -53 12 -62 24 -11 15 -14 93 -14
404 0 212 4 392 9 400 5 8 26 17 47 20 30 5 39 11 39 26 0 19 -8 20 -188 23
-158 2 -188 0 -193 -12z"/>
<path d="M11554 6805 c-9 -23 2 -32 47 -38 25 -3 52 -15 65 -29 14 -14 95
-197 199 -448 96 -233 181 -427 188 -432 21 -13 36 -9 52 15 8 12 64 135 124
272 195 445 260 588 275 603 8 8 32 18 53 21 29 5 38 11 38 26 0 19 -7 20
-160 20 -153 0 -160 -1 -160 -20 0 -16 8 -21 38 -23 28 -2 37 -8 37 -21 0 -30
-232 -603 -240 -594 -13 13 -212 545 -217 580 -5 30 -4 32 28 35 26 2 35 8 37
26 l3 22 -201 0 c-166 0 -202 -2 -206 -15z"/>
<path d="M13606 6812 c-14 -23 6 -42 43 -42 21 0 46 -6 57 -14 18 -14 19 -30
19 -403 0 -293 -3 -393 -13 -410 -8 -15 -24 -23 -50 -25 -29 -2 -37 -7 -37
-23 0 -19 7 -20 200 -20 193 0 200 1 200 20 0 16 -8 21 -47 25 -27 3 -53 11
-59 17 -8 8 -14 68 -17 163 l-5 150 56 0 56 0 85 -118 c110 -154 167 -216 220
-242 38 -18 58 -20 162 -18 111 3 119 4 119 23 0 15 -9 21 -42 27 -61 10 -91
29 -158 99 -55 58 -210 246 -229 277 -5 9 10 32 44 68 142 150 128 344 -29
421 l-56 28 -256 3 c-161 2 -259 0 -263 -6z m445 -105 c75 -49 104 -195 60
-294 -28 -60 -55 -75 -137 -71 l-69 3 -3 193 -2 192 58 0 c45 0 67 -6 93 -23z"/>
<path d="M15494 6806 c-9 -23 4 -36 35 -36 15 0 36 -6 47 -14 18 -14 19 -30
19 -409 0 -435 2 -424 -63 -429 -29 -2 -37 -7 -37 -23 0 -19 7 -20 205 -20
198 0 205 1 205 20 0 16 -9 21 -49 26 -31 3 -53 12 -62 24 -11 15 -14 93 -14
404 0 212 4 392 9 400 5 8 26 17 47 20 30 5 39 11 39 26 0 19 -8 20 -188 23
-158 2 -188 0 -193 -12z"/>
<path d="M16154 6805 c-9 -24 5 -35 45 -35 20 0 46 -6 57 -14 18 -14 19 -30
19 -403 0 -290 -3 -394 -13 -410 -8 -15 -23 -23 -50 -25 -29 -2 -37 -7 -37
-23 0 -19 10 -20 267 -29 223 -7 278 -6 340 7 159 32 283 122 345 248 44 93
56 156 51 269 -4 82 -10 108 -36 164 -63 135 -178 221 -335 251 -113 22 -645
22 -653 0z m541 -90 c214 -56 327 -254 286 -500 -31 -181 -145 -268 -351 -268
-109 0 -154 17 -164 63 -3 18 -6 187 -6 376 l0 344 88 0 c48 0 115 -7 147 -15z"/>
<path d="M18414 6806 c-9 -24 4 -36 42 -36 21 0 42 -8 55 -21 20 -20 20 -28
17 -408 -3 -421 -3 -421 -58 -421 -30 0 -53 -20 -42 -37 5 -7 101 -13 282 -17
258 -7 280 -6 353 13 102 27 169 64 235 128 105 104 160 281 133 431 -32 181
-137 298 -321 358 -47 15 -103 18 -372 22 -279 3 -319 2 -324 -12z m531 -90
c144 -38 240 -130 281 -267 24 -80 15 -255 -15 -326 -44 -101 -143 -163 -282
-177 -80 -8 -167 8 -194 34 -18 19 -20 38 -23 370 -3 192 -2 356 1 365 8 20
159 21 232 1z"/>
<path d="M2320 5100 c0 -440 -3 -800 -7 -800 -5 0 -26 12 -48 25 -47 29 -51
30 -59 8 -4 -9 4 -32 19 -55 40 -60 41 -86 6 -138 -24 -36 -28 -47 -18 -58 11
-10 21 -10 56 3 24 8 45 15 47 15 2 0 4 -141 4 -314 0 -333 9 -471 40 -602
100 -427 398 -780 803 -951 93 -39 231 -77 333 -91 47 -7 82 -18 108 -36 52
-35 110 -35 161 -1 26 19 68 31 148 45 283 49 521 173 728 379 193 194 312
410 375 681 14 63 18 142 21 488 3 226 5 412 7 412 1 0 28 -9 59 -20 32 -11
62 -18 68 -15 16 10 10 36 -16 67 -33 39 -32 74 4 129 21 34 26 50 19 63 -9
16 -14 14 -64 -13 -29 -17 -58 -31 -64 -31 -7 0 -10 267 -10 805 l0 805 -1360
0 -1360 0 0 -800z m2647 -522 l-3 -1253 -23 -99 c-56 -246 -162 -445 -335
-625 -212 -220 -498 -363 -777 -387 -64 -6 -78 -10 -101 -35 -34 -37 -62 -37
-89 0 -19 26 -28 29 -100 35 -323 27 -677 231 -887 511 -66 88 -175 307 -202
405 -50 181 -50 182 -50 1483 l0 1217 1285 0 1286 0 -4 -1252z"/>
<path d="M4647 5663 c-4 -3 -7 -46 -7 -94 l0 -88 -72 -3 c-65 -3 -73 -5 -73
-23 0 -18 8 -20 73 -23 l72 -3 0 -128 c0 -94 4 -131 13 -140 28 -23 37 9 37
141 l0 127 68 3 c59 3 67 5 67 23 0 18 -8 20 -67 23 l-68 3 0 79 c0 43 -3 85
-6 94 -6 16 -26 21 -37 9z"/>
<path d="M4052 5191 c-61 -61 -112 -115 -112 -120 0 -26 44 -5 158 75 67 47
122 90 122 95 0 16 -32 59 -44 59 -6 0 -62 -49 -124 -109z m128 60 c0 -10 -62
-61 -74 -61 -4 0 5 16 20 35 25 33 54 47 54 26z"/>
<path d="M4177 5000 c-69 -66 -104 -106 -100 -115 3 -8 10 -15 17 -15 11 0
242 133 260 151 11 10 -39 79 -58 79 -7 0 -61 -45 -119 -100z m118 24 c-11 -9
-38 -24 -60 -35 l-40 -20 49 46 c36 34 52 43 60 35 8 -8 6 -15 -9 -26z"/>
<path d="M4388 4892 c-55 -59 -158 -189 -158 -201 0 -21 26 -11 91 37 110 80
159 124 158 141 0 9 -13 26 -28 38 l-28 22 -35 -37z m52 -21 c0 -11 -62 -62
-68 -56 -3 2 6 17 19 34 23 29 49 41 49 22z"/>
<path d="M3707 4853 c-11 -11 -8 -49 8 -95 7 -24 18 -101 22 -173 8 -123 9
-130 30 -133 14 -2 36 11 67 41 l46 43 30 -57 c16 -32 30 -61 30 -64 0 -3 -10
-5 -22 -6 -13 0 -54 -10 -93 -23 l-70 -22 -3 -55 c-2 -30 0 -74 3 -98 6 -42 7
-43 38 -37 103 18 160 35 168 47 5 8 7 46 3 84 -6 79 -4 78 52 -25 20 -36 51
-92 70 -125 19 -33 41 -76 50 -95 9 -19 59 -115 111 -212 65 -121 99 -175 108
-172 15 6 45 48 45 62 0 8 -178 322 -233 411 -11 19 -16 31 -10 28 6 -4 77
-108 159 -232 81 -124 153 -225 160 -225 7 0 25 11 41 24 l27 24 -72 109 c-40
60 -72 112 -72 116 0 4 115 7 255 7 209 0 255 2 255 14 0 11 -49 14 -252 18
-171 4 -257 2 -266 -5 -9 -7 -16 -7 -20 -1 -4 6 -48 68 -98 140 -50 71 -123
177 -162 235 -54 82 -77 108 -99 113 -50 13 -70 33 -113 118 -74 145 -108 195
-144 212 -39 18 -40 18 -49 9z m104 -275 l20 -40 -22 -24 c-12 -13 -26 -24
-31 -24 -4 0 -8 32 -8 71 0 78 8 81 41 17z m113 -245 c13 -85 11 -91 -46 -108
-88 -26 -89 -25 -86 52 l3 67 45 12 c72 19 77 18 84 -23z"/>
<path d="M4491 4656 c-42 -130 -45 -156 -16 -156 14 0 145 237 145 263 0 17
-21 27 -58 27 -26 0 -29 -7 -71 -134z m74 64 c-9 -16 -17 -30 -19 -30 -3 0 1
14 7 30 6 17 15 30 19 30 5 0 2 -13 -7 -30z"/>
<path d="M3599 4678 c-23 -40 -52 -90 -65 -110 -13 -21 -24 -43 -24 -51 0 -7
25 -37 55 -67 l56 -55 -28 -6 c-15 -4 -55 -7 -88 -8 -33 -1 -65 -5 -71 -9 -6
-4 -28 -39 -48 -79 l-36 -72 53 -15 c132 -37 259 -68 263 -63 15 15 -1 593
-17 603 -4 2 -27 -28 -50 -68z m40 -175 c1 -35 -3 -53 -11 -53 -13 0 -78 59
-78 71 0 5 17 36 37 71 l38 63 6 -50 c4 -27 8 -74 8 -102z m1 -186 c0 -24 3
-65 6 -91 6 -42 5 -46 -14 -46 -26 0 -215 49 -224 58 -12 12 39 110 59 114 10
1 53 4 96 6 l77 3 0 -44z"/>
<path d="M3935 4165 c-27 -8 -77 -23 -110 -34 l-60 -19 3 -118 c2 -66 6 -122
11 -127 4 -4 68 22 143 58 75 36 141 65 147 65 15 0 12 54 -7 125 -16 55 -19
60 -47 62 -16 1 -52 -4 -80 -12z m99 -81 c15 -47 16 -58 4 -66 -26 -18 -216
-108 -227 -108 -8 0 -11 28 -9 92 l3 92 70 22 c39 12 86 22 106 23 34 1 36 0
53 -55z"/>
<path d="M3225 4014 c-36 -64 -64 -119 -60 -122 10 -10 194 -29 206 -21 12 7
49 149 49 187 0 17 -10 27 -42 41 -89 38 -79 44 -153 -85z m134 61 l29 -14
-17 -78 -16 -78 -74 -3 c-71 -3 -73 -2 -68 18 10 39 90 170 104 170 8 0 27 -7
42 -15z"/>
<path d="M3516 4039 c-3 -24 -7 -69 -8 -99 l-3 -55 77 -9 c110 -13 109 -14
107 94 -1 50 -6 93 -10 95 -4 3 -41 8 -82 11 l-75 7 -6 -44z m129 -1 c2 -2 5
-33 7 -68 l3 -65 -34 -3 c-19 -2 -44 -1 -57 2 -26 7 -30 33 -17 110 l6 38 44
-5 c24 -2 46 -6 48 -9z"/>
<path d="M2728 4023 c-204 -3 -268 -6 -268 -16 0 -9 71 -12 315 -11 174 1 319
5 323 8 12 13 -23 26 -63 24 -22 -2 -160 -4 -307 -5z"/>
<path d="M4808 3973 c-78 -3 -98 -7 -98 -18 0 -12 19 -15 100 -15 93 0 100 1
100 20 0 11 -1 19 -2 18 -2 -1 -47 -4 -100 -5z"/>
<path d="M4467 3963 c-18 -17 0 -23 73 -23 64 0 80 3 80 15 0 12 -15 15 -73
15 -41 0 -77 -3 -80 -7z"/>
<path d="M2537 3954 c-14 -15 6 -24 54 -24 36 0 49 4 47 13 -5 13 -89 23 -101
11z"/>
<path d="M2740 3946 c0 -12 10 -16 41 -16 52 0 48 23 -4 28 -28 3 -37 0 -37
-12z"/>
<path d="M2912 3953 c-12 -2 -20 -9 -17 -14 8 -11 155 -12 155 0 0 16 -84 24
-138 14z"/>
<path d="M4818 3913 c-69 -3 -88 -7 -88 -18 0 -12 18 -15 90 -15 83 0 90 1 90
20 0 11 -1 19 -2 18 -2 -1 -42 -4 -90 -5z"/>
<path d="M4587 3904 c-14 -14 6 -24 49 -24 32 0 44 4 44 15 0 11 -11 15 -43
15 -24 0 -47 -3 -50 -6z"/>
<path d="M2828 3853 c-30 -5 -34 -13 -16 -31 6 -6 10 -14 7 -16 -2 -3 -48 -6
-102 -8 -69 -2 -97 -7 -97 -15 0 -10 25 -13 94 -13 51 0 114 -3 139 -6 39 -6
48 -4 53 11 5 11 1 21 -10 27 -20 11 -12 28 15 28 10 0 19 5 19 10 0 6 -11 10
-24 10 -13 0 -30 2 -38 3 -7 2 -25 2 -40 0z"/>
<path d="M3950 3836 c-57 -15 -111 -48 -145 -87 -22 -27 -25 -39 -25 -114 0
-46 4 -86 9 -90 5 -3 67 15 138 41 115 41 134 45 190 40 50 -4 64 -2 71 11 13
23 -26 174 -50 196 -24 20 -118 22 -188 3z m158 -25 c13 -8 42 -100 42 -133 0
-15 -9 -18 -52 -18 -34 0 -92 -13 -162 -36 -122 -41 -126 -40 -126 34 0 70 46
117 143 148 48 14 136 18 155 5z"/>
<path d="M4607 3814 c-16 -16 -5 -24 33 -24 22 0 40 5 40 10 0 6 -9 10 -19 10
-11 0 -26 2 -33 5 -8 3 -17 2 -21 -1z"/>
<path d="M4733 3813 c-46 -8 -21 -23 38 -23 40 0 59 4 57 11 -4 12 -57 18 -95
12z"/>
<path d="M3104 3792 c-20 -13 -83 -137 -76 -148 4 -6 68 -28 142 -49 74 -20
142 -39 151 -42 12 -3 21 17 43 101 16 58 26 112 23 121 -5 12 -28 15 -126 15
-66 0 -125 2 -133 5 -7 3 -18 1 -24 -3z m246 -50 c0 -9 -8 -46 -19 -82 -15
-53 -22 -64 -37 -62 -54 8 -224 58 -224 66 0 5 11 28 25 52 29 49 33 50 163
46 78 -3 92 -6 92 -20z"/>
<path d="M2966 3783 c-11 -11 -6 -23 9 -23 8 0 15 4 15 9 0 13 -16 22 -24 14z"/>
<path d="M3484 3779 c-13 -21 -42 -214 -35 -233 6 -15 31 -24 121 -42 62 -13
117 -21 121 -18 5 3 9 65 9 139 l0 133 -72 11 c-40 7 -87 14 -105 17 -18 3
-34 0 -39 -7z m158 -45 c12 -4 18 -22 23 -77 13 -133 9 -137 -112 -117 -85 15
-85 15 -56 138 l17 74 56 -7 c30 -3 63 -8 72 -11z"/>
<path d="M4610 3742 c0 -23 -12 -34 -127 -111 l-91 -61 -174 0 -173 0 -42 -55
-43 -55 -375 0 -375 0 -26 52 -26 51 -141 -6 c-77 -4 -144 -10 -148 -14 -5 -6
13 -227 20 -250 1 -2 38 -3 84 -3 l82 0 89 -115 c49 -63 94 -116 100 -118 6
-2 134 -2 284 1 231 4 273 3 270 -9 -2 -10 11 -15 50 -17 42 -2 52 0 52 12 0
13 14 16 73 16 44 0 79 5 89 13 8 6 32 41 53 77 66 112 80 127 127 135 64 10
79 24 143 132 74 125 73 124 178 195 76 51 87 62 87 88 0 25 4 29 33 32 51 5
37 23 -20 26 -46 3 -53 1 -53 -16z"/>
<path d="M4790 3725 c-5 -14 -17 -28 -25 -31 -36 -14 -9 -24 65 -24 l80 0 0
40 0 40 -55 0 c-50 0 -56 -2 -65 -25z"/>
<path d="M2506 3722 c-3 -5 -2 -18 1 -30 6 -25 38 -29 50 -7 6 9 32 17 71 21
34 4 62 11 62 15 0 11 -177 12 -184 1z"/>
<path d="M2846 3711 c-16 -26 23 -41 54 -21 18 11 13 16 -21 25 -16 4 -30 2
-33 -4z"/>
<path d="M2708 3663 c-43 -2 -78 -8 -78 -14 0 -15 222 -7 228 9 2 8 -8 11 -35
10 -21 -1 -73 -4 -115 -5z"/>
<path d="M2687 3604 c-19 -19 -1 -25 71 -22 43 2 77 7 77 13 0 11 -137 20
-148 9z"/>
<path d="M4665 3600 c-3 -5 0 -13 9 -16 21 -8 61 -1 61 11 0 14 -62 19 -70 5z"/>
<path d="M4887 3604 c-8 -8 1 -24 14 -24 5 0 9 7 9 15 0 15 -12 20 -23 9z"/>
<path d="M4640 3524 c0 -12 9 -14 42 -12 59 4 63 28 4 28 -35 0 -46 -4 -46
-16z"/>
<path d="M2569 3528 c0 -2 -2 -18 -3 -35 l-4 -33 100 0 c75 0 99 3 96 13 -3 7
-28 14 -59 17 -44 4 -53 8 -51 23 2 14 -5 17 -38 17 -22 0 -40 -1 -41 -2z"/>
<path d="M4490 3485 c-23 -27 2 -36 96 -33 81 3 89 5 89 23 0 18 -8 20 -86 23
-69 2 -89 0 -99 -13z"/>
<path d="M4577 3433 c-17 -16 -3 -23 48 -23 42 0 55 3 55 15 0 11 -12 15 -48
15 -27 0 -52 -3 -55 -7z"/>
<path d="M2570 3402 c0 -20 28 -32 75 -32 45 1 85 16 85 34 0 3 -36 6 -80 6
-44 0 -80 -4 -80 -8z"/>
<path d="M2767 3384 c-4 -4 -4 -10 -1 -15 6 -10 34 0 34 12 0 10 -24 12 -33 3z"/>
<path d="M4590 3375 c0 -11 12 -15 45 -15 33 0 45 4 45 15 0 11 -12 15 -45 15
-33 0 -45 -4 -45 -15z"/>
<path d="M4563 3333 c-18 -2 -33 -8 -33 -14 0 -5 45 -9 100 -9 82 0 100 3 100
15 0 12 -13 15 -67 13 -38 0 -83 -3 -100 -5z"/>
<path d="M2580 3325 c0 -3 9 -14 20 -25 18 -18 28 -20 78 -13 42 6 58 13 60
26 3 15 -6 17 -77 17 -45 0 -81 -2 -81 -5z"/>
<path d="M4780 3266 c0 -10 9 -16 21 -16 24 0 21 23 -4 28 -10 2 -17 -3 -17
-12z"/>
<path d="M4430 3254 c0 -14 7 -15 38 -10 20 3 56 6 80 6 23 0 42 5 42 10 0 6
-33 10 -80 10 -67 0 -80 -3 -80 -16z"/>
<path d="M2560 3235 c0 -13 16 -15 118 -13 153 4 151 22 -3 26 -99 2 -115 0
-115 -13z"/>
<path d="M2637 3173 c-12 -11 -8 -20 17 -31 22 -10 23 -14 15 -52 -5 -23 -7
-46 -3 -51 3 -6 45 -9 95 -8 49 1 92 -1 96 -5 8 -8 220 -8 251 0 31 9 22 29
-14 30 -51 2 -54 4 -54 27 0 29 -62 50 -120 41 -32 -5 -40 -11 -40 -28 0 -11
-4 -28 -10 -36 -8 -12 -11 -12 -28 3 -10 9 -30 17 -44 17 -30 0 -56 44 -37 66
6 7 8 18 4 24 -7 11 -117 14 -128 3z"/>
<path d="M4337 3173 c-40 -3 -57 -8 -54 -16 3 -9 30 -11 93 -8 94 3 108 7 99
22 -6 9 -20 9 -138 2z"/>
<path d="M4610 3166 c0 -9 21 -15 68 -19 76 -8 182 -9 182 -3 0 2 3 11 6 20 5
14 -10 16 -125 16 -104 0 -131 -3 -131 -14z"/>
<path d="M2893 3163 c-30 -11 -9 -23 42 -23 42 0 55 3 55 15 0 11 -11 15 -42
14 -24 0 -49 -3 -55 -6z"/>
<path d="M4703 3113 c-31 -12 -8 -23 47 -23 47 0 60 3 60 15 0 11 -12 15 -47
14 -27 0 -54 -3 -60 -6z"/>
<path d="M4260 3102 c-5 -2 -10 -8 -10 -13 0 -5 27 -9 60 -9 45 0 60 4 60 14
0 10 -13 14 -50 13 -27 -1 -54 -3 -60 -5z"/>
<path d="M4433 3104 c-28 -12 -10 -25 30 -22 23 2 42 8 42 13 0 11 -52 17 -72
9z"/>
<path d="M4396 3062 c-27 -4 -51 -13 -54 -19 -3 -10 27 -13 127 -13 118 0 159
8 131 25 -16 10 -148 14 -204 7z"/>
<path d="M4512 3000 c-240 -8 -209 -25 45 -25 190 0 208 2 211 18 3 14 -4 17
-45 15 -26 -1 -121 -5 -211 -8z"/>
<path d="M3703 2993 c-170 -5 -140 -23 38 -23 116 0 150 3 147 13 -5 14 -25
15 -185 10z"/>
<path d="M3983 2993 c-30 -11 -9 -23 42 -23 42 0 55 3 55 15 0 11 -11 15 -42
14 -24 0 -49 -3 -55 -6z"/>
<path d="M2658 2983 c-10 -2 -18 -9 -18 -14 0 -5 76 -9 181 -9 140 0 180 3
177 13 -4 9 -46 12 -164 13 -87 1 -167 0 -176 -3z"/>
<path d="M3137 2983 c-18 -17 -1 -23 63 -23 56 0 70 3 70 15 0 12 -14 15 -63
15 -35 0 -67 -3 -70 -7z"/>
<path d="M4272 2913 c-19 -4 -21 -7 -11 -19 9 -11 54 -14 233 -14 216 0 246 4
246 32 0 8 -426 9 -468 1z"/>
<path d="M3134 2901 c-17 -17 21 -21 201 -21 172 0 205 2 205 14 0 13 -32 15
-201 13 -110 -1 -203 -4 -205 -6z"/>
<path d="M3895 2900 c-3 -5 0 -13 8 -16 23 -8 102 0 102 11 0 14 -102 19 -110
5z"/>
<path d="M2690 2890 c0 -6 35 -10 85 -10 50 0 85 4 85 10 0 6 -35 10 -85 10
-50 0 -85 -4 -85 -10z"/>
<path d="M4295 2840 c-104 -3 -191 -7 -192 -8 -2 -1 -3 -7 -3 -14 0 -8 68 -9
267 -4 147 4 269 9 271 11 2 2 1 8 -3 14 -3 7 -36 10 -78 9 -40 -1 -157 -5
-262 -8z"/>
<path d="M3360 2825 c0 -13 35 -15 255 -15 220 0 255 2 255 15 0 13 -35 15
-255 15 -220 0 -255 -2 -255 -15z"/>
<path d="M2780 2820 c0 -9 66 -12 272 -15 24 0 43 5 46 13 3 9 -33 12 -157 12
-101 0 -161 -4 -161 -10z"/>
<path d="M4118 2773 c-108 -3 -138 -7 -138 -17 0 -8 8 -17 18 -22 31 -14 -45
-21 -164 -16 -96 4 -112 3 -117 -11 -3 -9 -3 -18 1 -20 4 -3 123 -2 265 1 258
5 277 8 246 39 -12 12 -2 16 54 25 26 4 22 23 -5 24 -13 0 -85 -1 -160 -3z"/>
<path d="M3427 2763 c-20 -19 7 -23 158 -23 140 0 165 2 165 15 0 13 -24 15
-158 15 -87 0 -162 -3 -165 -7z"/>
<path d="M2933 2754 c-29 -12 -10 -24 38 -24 36 0 49 4 47 13 -5 12 -63 20
-85 11z"/>
<path d="M3097 2753 c-20 -19 3 -23 105 -21 78 2 113 7 116 16 3 9 -23 12
-105 12 -61 0 -113 -3 -116 -7z"/>
<path d="M3230 2703 c0 -9 18 -13 54 -13 60 0 83 -16 39 -26 -41 -10 -45 -14
-32 -30 9 -11 45 -14 166 -14 142 0 154 1 151 18 -3 14 -17 17 -100 20 l-96 3
-11 29 -10 30 -80 -2 c-57 -2 -81 -7 -81 -15z"/>
<path d="M4365 2710 c-3 -5 4 -12 17 -15 36 -9 101 -1 106 13 5 15 -114 17
-123 2z"/>
<path d="M2882 2698 c3 -9 32 -13 106 -13 140 0 139 19 -1 23 -85 2 -108 0
-105 -10z"/>
<path d="M3757 2663 c-4 -3 -7 -12 -7 -20 0 -11 23 -13 112 -11 98 3 113 5
116 21 3 15 -7 17 -106 17 -60 0 -112 -3 -115 -7z"/>
<path d="M4233 2573 c-76 -7 -46 -23 43 -23 64 0 85 3 82 13 -5 13 -54 17
-125 10z"/>
<path d="M3368 2563 c-237 -3 -268 -5 -268 -19 0 -15 30 -16 313 -9 171 4 314
9 316 10 12 12 -17 25 -52 23 -23 -2 -162 -4 -309 -5z"/>
<path d="M3837 2564 c-19 -19 -1 -25 71 -22 43 2 77 7 77 13 0 11 -137 20
-148 9z"/>
<path d="M3180 2490 c-13 -9 -13 -11 0 -20 8 -5 24 -7 35 -4 26 8 28 11 20 23
-8 14 -35 14 -55 1z"/>
<path d="M3373 2494 c-28 -12 -11 -24 33 -24 32 0 44 4 42 13 -5 13 -54 20
-75 11z"/>
<path d="M3610 2485 c0 -9 9 -15 25 -15 16 0 25 6 25 15 0 9 -9 15 -25 15 -16
0 -25 -6 -25 -15z"/>
<path d="M3867 2493 c-15 -15 -5 -23 28 -23 24 0 35 5 35 15 0 15 -50 22 -63
8z"/>
<path d="M4085 2490 c-3 -5 0 -13 8 -16 23 -9 177 0 180 11 3 14 -179 19 -188
5z"/>
<path d="M3998 2402 c-38 -7 -16 -22 32 -22 28 0 50 4 50 9 0 10 -55 18 -82
13z"/>
<path d="M3466 2391 c-11 -17 25 -21 174 -21 151 0 210 6 210 21 0 12 -377 12
-384 0z"/>
<path d="M3617 2314 c-18 -18 -3 -25 48 -22 30 2 56 8 58 13 2 11 -95 20 -106
9z"/>
<path d="M15625 5670 c-29 -11 -249 -176 -372 -278 -106 -87 -125 -114 -101
-138 12 -12 29 -8 119 35 154 72 316 122 424 130 109 7 111 12 64 115 -64 139
-82 158 -134 136z"/>
<path d="M11468 5113 c-27 -31 -41 -64 -389 -934 -187 -470 -352 -876 -366
-904 -31 -63 -87 -122 -127 -134 -17 -5 -61 -12 -98 -16 -55 -5 -68 -10 -73
-26 -15 -48 -6 -49 355 -49 361 0 370 1 355 50 -5 15 -15 20 -43 20 -71 0
-113 12 -129 36 -22 34 -8 90 89 351 l83 223 305 -3 304 -2 110 -289 c100
-267 108 -291 91 -300 -9 -6 -27 -19 -39 -28 -20 -16 -20 -17 -3 -35 16 -17
45 -18 353 -21 355 -3 368 -1 362 42 -3 18 -14 23 -84 33 -103 14 -134 31
-183 96 -70 94 -97 157 -537 1256 -131 328 -248 606 -262 622 -27 33 -52 37
-74 12z m85 -898 c52 -143 100 -272 106 -287 l11 -28 -239 0 -239 0 95 253
c52 138 106 283 120 322 l26 69 13 -34 c6 -19 55 -152 107 -295z"/>
<path d="M22355 5114 c-26 -26 -30 -37 -383 -919 -383 -957 -370 -926 -411
-982 -40 -55 -76 -72 -175 -86 -77 -11 -81 -13 -84 -39 -3 -22 2 -28 20 -33
13 -3 172 -4 353 -3 l330 3 0 30 c0 30 -1 30 -68 37 -140 14 -140 34 -2 401
l78 207 302 0 303 0 17 -42 c60 -150 195 -522 195 -537 0 -12 -11 -23 -31 -30
-24 -8 -30 -16 -27 -33 2 -14 13 -25 28 -29 14 -4 169 -7 346 -8 339 -1 361 2
352 45 -3 15 -15 20 -63 27 -112 14 -125 18 -162 50 -88 77 -97 97 -519 1148
-157 393 -295 731 -305 751 -28 55 -64 71 -94 42z m83 -893 c61 -169 112 -311
112 -315 0 -3 -106 -6 -236 -6 -132 0 -234 4 -232 9 2 5 55 146 118 315 63
168 117 306 120 306 3 0 56 -139 118 -309z"/>
<path d="M9520 5100 c-285 -30 -500 -119 -673 -279 -200 -186 -307 -445 -307
-746 0 -378 150 -667 446 -862 198 -129 410 -188 719 -200 238 -9 482 20 577
68 42 21 59 59 82 184 40 214 43 286 10 299 -27 10 -51 -12 -63 -60 -34 -134
-127 -235 -256 -277 -72 -24 -237 -40 -330 -33 -210 17 -385 104 -541 269
-122 128 -197 282 -230 470 -24 134 -15 368 19 498 69 266 232 437 473 495 85
21 319 24 414 5 274 -53 402 -165 425 -374 5 -41 12 -60 25 -67 23 -12 46 -4
55 18 10 26 26 505 17 514 -9 9 -201 44 -352 63 -138 19 -403 26 -510 15z"/>
<path d="M12367 5088 c-13 -20 -53 -200 -72 -325 -8 -52 8 -85 38 -81 16 2 32
22 57 73 58 116 72 120 418 131 l234 7 -5 -814 c-4 -849 -6 -887 -48 -925 -11
-10 -50 -22 -91 -28 -77 -12 -103 -31 -79 -60 12 -14 62 -16 431 -16 444 0
447 0 438 47 -3 15 -18 19 -83 26 -120 12 -152 23 -170 57 -29 55 -34 222 -35
968 l0 742 133 0 c201 -1 329 -15 392 -44 59 -27 80 -52 89 -111 12 -67 16
-75 41 -75 14 0 29 8 34 18 14 27 18 388 4 403 -9 9 -27 8 -80 -2 -54 -11
-213 -14 -778 -13 -622 0 -716 2 -760 16 -27 9 -60 19 -72 23 -16 5 -25 1 -36
-17z"/>
<path d="M15185 5100 c-261 -30 -502 -144 -661 -312 -124 -132 -200 -273 -252
-467 -22 -84 -25 -117 -26 -261 0 -138 3 -179 22 -252 112 -449 428 -731 885
-788 470 -59 899 130 1115 491 183 306 209 744 62 1056 -130 277 -382 458
-721 517 -112 20 -322 27 -424 16z m300 -184 c369 -125 581 -537 535 -1042
-22 -247 -84 -415 -199 -536 -158 -168 -408 -211 -663 -115 -350 133 -555 542
-518 1033 36 463 263 703 655 690 86 -3 127 -9 190 -30z"/>
<path d="M20402 5099 c-303 -29 -525 -130 -710 -323 -120 -126 -190 -255 -237
-441 -76 -301 -11 -655 163 -885 165 -218 413 -360 727 -416 125 -23 506 -26
630 -5 112 18 198 47 222 73 25 26 45 101 67 243 28 185 28 181 7 206 -28 34
-51 16 -76 -58 -75 -217 -207 -294 -510 -297 -162 -1 -241 17 -373 83 -340
171 -517 524 -481 962 19 236 82 392 209 519 45 46 100 89 137 108 204 107
545 105 779 -3 122 -56 199 -159 211 -281 5 -58 24 -104 43 -104 6 0 19 9 30
20 17 17 20 33 20 118 0 53 5 162 11 241 8 117 7 147 -3 158 -7 7 -52 19 -98
28 -342 61 -547 76 -768 54z"/>
<path d="M16711 5057 c-17 -17 -13 -45 8 -57 11 -5 40 -10 65 -10 25 0 64 -7
87 -17 76 -30 73 -2 77 -744 5 -845 -7 -1052 -59 -1085 -8 -5 -48 -13 -89 -19
-64 -9 -75 -13 -78 -31 -2 -11 3 -25 10 -31 9 -7 225 -12 649 -14 609 -4 638
-3 657 15 26 23 48 117 64 275 10 108 10 124 -4 137 -22 22 -57 9 -64 -24 -28
-130 -75 -193 -161 -218 -43 -13 -93 -15 -241 -12 -170 3 -191 5 -233 26 -53
26 -66 48 -79 140 -14 100 -11 1465 3 1522 15 57 55 80 140 80 32 0 67 5 78
10 24 13 25 46 2 58 -26 14 -819 12 -832 -1z"/>
<path d="M18326 5058 c-20 -11 -21 -32 0 -52 10 -10 33 -16 65 -16 27 0 64 -6
83 -14 63 -26 61 3 61 -891 0 -445 -4 -831 -8 -857 -13 -74 -31 -90 -123 -102
-72 -10 -79 -13 -82 -35 -2 -13 2 -28 10 -32 17 -11 829 -11 846 0 8 4 12 19
10 32 -3 22 -9 25 -83 32 -111 11 -152 24 -171 52 -29 44 -35 243 -32 992 3
650 5 732 19 764 19 41 57 59 121 59 22 0 48 5 59 10 24 13 25 57 2 63 -33 9
-760 4 -777 -5z"/>
<path d="M2074 4501 c-38 -23 -69 -71 -85 -132 -10 -39 -18 -48 -47 -59 -82
-30 -77 -179 8 -209 20 -6 32 -19 36 -38 35 -144 175 -208 229 -103 25 48 20
59 -24 53 -49 -7 -55 8 -37 85 13 56 8 93 -12 106 -7 4 -5 17 5 36 12 25 13
40 4 81 -6 27 -11 62 -11 76 0 25 2 25 45 20 51 -7 57 4 28 53 -30 51 -86 63
-139 31z"/>
<path d="M5201 4503 c-24 -21 -52 -73 -45 -85 3 -4 22 -5 43 -2 25 4 41 2 46
-6 4 -6 1 -41 -6 -77 -11 -57 -11 -69 3 -93 15 -26 14 -29 -4 -45 -17 -14 -19
-23 -12 -58 4 -23 8 -60 8 -82 1 -39 0 -40 -34 -40 -19 0 -36 -3 -37 -7 -8
-23 0 -43 26 -69 37 -36 84 -39 131 -6 36 23 79 97 80 134 0 16 8 25 25 29 14
3 36 20 50 36 20 23 25 41 25 83 0 47 -3 56 -31 79 -17 14 -37 26 -44 26 -8 0
-19 18 -26 43 -33 125 -132 195 -198 140z"/>
<path d="M15897 2586 c-12 -13 -176 -408 -371 -897 -192 -481 -360 -896 -374
-924 -56 -115 -94 -143 -217 -160 -80 -10 -80 -10 -80 -40 l0 -30 350 0 350 0
0 30 c0 30 -1 30 -65 36 -82 8 -99 15 -106 46 -13 49 5 105 156 506 l21 57
303 0 303 0 107 -282 c58 -156 106 -290 106 -300 0 -9 -13 -21 -30 -27 -35
-12 -41 -45 -11 -61 13 -6 141 -10 348 -10 271 0 333 3 349 14 15 12 17 18 8
33 -8 13 -32 21 -91 28 -84 11 -113 24 -162 77 -66 70 -127 211 -610 1420
-106 264 -193 468 -207 483 -29 31 -49 32 -77 1z m89 -886 c58 -162 109 -301
111 -307 4 -10 -46 -13 -232 -13 -186 0 -236 3 -232 13 180 483 232 616 238
610 4 -5 56 -141 115 -303z"/>
<path d="M14194 2579 c-343 -41 -555 -280 -514 -580 17 -124 48 -198 130 -309
63 -86 143 -160 322 -303 242 -193 299 -272 306 -426 4 -75 1 -93 -19 -135
-28 -61 -75 -108 -142 -144 -48 -25 -60 -27 -172 -27 -109 0 -125 2 -176 26
-111 52 -179 151 -200 291 -15 100 -24 120 -52 116 -39 -5 -47 -43 -53 -264
-6 -204 -6 -210 15 -236 27 -33 147 -74 266 -90 102 -14 321 -4 400 17 221 60
392 231 434 433 28 136 3 303 -66 435 -49 95 -223 270 -393 397 -144 108 -258
217 -285 275 -27 56 -32 164 -10 220 22 58 93 121 158 140 28 8 86 15 128 15
143 0 243 -58 298 -173 17 -34 33 -84 37 -110 8 -61 38 -82 66 -47 14 18 18
40 18 109 0 47 3 137 7 198 l6 113 -34 14 c-88 36 -347 61 -475 45z"/>
<path d="M17372 2578 c-5 -7 -12 -22 -15 -33 -3 -11 -11 -389 -17 -840 -6
-451 -15 -866 -20 -921 -11 -133 -24 -159 -90 -173 -28 -6 -69 -11 -90 -11
-44 0 -65 -23 -49 -53 9 -16 40 -17 374 -17 360 0 364 0 376 21 17 33 -2 43
-102 55 -168 21 -159 -20 -183 884 -7 261 -12 476 -11 478 1 1 71 -73 155
-165 224 -245 1258 -1280 1297 -1298 41 -20 69 -8 77 32 3 16 10 291 16 613
22 1297 19 1247 65 1290 17 16 42 24 87 29 72 8 88 15 88 41 0 10 -6 22 -12
27 -18 11 -679 13 -700 1 -21 -10 -23 -39 -6 -56 7 -7 40 -12 78 -12 83 0 128
-22 154 -74 21 -43 26 -166 41 -951 l7 -370 -143 150 c-79 83 -279 288 -444
456 -165 168 -387 397 -494 510 -386 405 -380 399 -405 399 -13 0 -28 -6 -34
-12z"/>
<path d="M19675 2576 c-27 -20 -91 -350 -75 -392 18 -46 50 -28 90 51 30 61
41 73 83 94 43 21 68 24 235 32 103 4 220 8 260 9 l72 0 0 -747 c-1 -748 -6
-918 -34 -972 -18 -35 -28 -39 -112 -47 -70 -7 -94 -26 -71 -58 11 -14 55 -16
423 -16 225 -1 418 2 428 6 11 4 16 15 14 33 -3 25 -6 26 -103 37 -55 7 -108
15 -118 19 -60 25 -66 126 -67 1024 l0 724 203 -7 c214 -8 279 -17 339 -47 48
-24 66 -52 74 -112 9 -67 37 -93 67 -63 10 11 16 60 21 200 8 213 4 232 -47
222 -118 -24 -228 -27 -863 -24 -656 4 -681 5 -741 25 -48 16 -66 18 -78 9z"/>
<path d="M22624 2579 c-445 -33 -785 -284 -922 -679 -46 -134 -57 -209 -56
-380 1 -132 5 -169 27 -251 51 -195 132 -344 256 -472 158 -165 365 -264 619
-298 115 -15 342 -5 453 20 468 107 775 465 818 954 40 464 -158 838 -534
1007 -181 81 -422 117 -661 99z m231 -175 c221 -59 411 -249 501 -499 49 -139
67 -253 67 -430 0 -175 -21 -310 -65 -432 -100 -277 -332 -422 -617 -386 -271
34 -477 191 -602 458 -136 289 -139 723 -7 995 82 170 239 284 433 314 55 8
229 -3 290 -20z"/>
<path d="M24851 2579 c-215 -25 -388 -134 -466 -293 -56 -114 -66 -202 -40
-332 41 -195 142 -324 437 -561 92 -73 185 -155 208 -181 101 -117 137 -270
90 -380 -29 -68 -100 -133 -176 -161 -50 -19 -74 -22 -160 -19 -89 3 -108 7
-166 36 -108 53 -170 145 -190 280 -5 37 -13 78 -16 92 -10 35 -46 38 -67 6
-14 -21 -18 -64 -22 -244 -7 -258 -12 -244 113 -286 194 -64 459 -62 639 4
274 102 418 365 361 662 -38 196 -158 350 -446 568 -256 195 -324 281 -324
409 1 110 59 192 163 232 74 28 222 24 292 -8 92 -41 165 -138 176 -234 8 -66
31 -96 61 -80 12 6 24 22 26 34 9 43 14 383 7 396 -13 20 -152 50 -281 61 -63
5 -122 9 -130 9 -8 -1 -49 -5 -89 -10z"/>
<path d="M12205 2557 c-22 -9 -193 -12 -610 -12 -319 0 -586 -4 -592 -8 -19
-12 -16 -45 5 -55 9 -5 49 -12 87 -14 88 -7 119 -21 142 -67 17 -34 18 -85 18
-816 0 -613 -3 -796 -14 -854 -17 -95 -37 -117 -117 -126 -33 -4 -67 -9 -76
-11 -21 -6 -24 -37 -5 -52 7 -6 238 -12 610 -17 545 -6 600 -5 623 10 33 21
43 50 60 175 18 139 18 224 0 239 -21 18 -54 -3 -62 -37 -25 -110 -47 -152
-96 -181 -48 -30 -157 -44 -303 -39 -145 5 -191 19 -229 71 -20 27 -21 43 -24
393 l-3 364 188 0 c275 0 305 -13 326 -140 12 -73 13 -75 42 -75 36 0 42 19
44 125 1 41 8 127 15 190 8 63 12 120 9 126 -9 25 -34 23 -66 -6 -49 -42 -97
-49 -339 -50 l-218 0 0 346 0 347 193 -7 c226 -9 281 -18 319 -56 28 -28 33
-42 43 -122 5 -36 11 -49 27 -54 40 -12 50 15 64 177 7 84 16 165 19 181 14
62 -13 81 -80 55z"/>
<path d="M8464 2537 c-20 -11 -18 -44 4 -55 9 -5 49 -12 89 -14 84 -6 118 -24
139 -74 21 -51 16 -1658 -6 -1718 -18 -50 -42 -64 -125 -73 -64 -7 -70 -10
-73 -32 -2 -13 2 -28 10 -32 7 -5 121 -9 253 -9 132 0 294 -5 360 -12 188 -17
503 -15 610 5 201 38 379 108 510 202 377 268 513 856 300 1290 -24 50 -73
126 -109 170 -176 218 -421 325 -807 354 -155 12 -1133 10 -1155 -2z m1127
-180 c306 -80 517 -269 608 -542 44 -133 54 -216 48 -400 -6 -185 -28 -288
-84 -405 -77 -160 -255 -288 -463 -330 -122 -25 -357 -28 -445 -4 -84 21 -140
57 -155 96 -22 59 -38 1000 -23 1411 l6 187 31 10 c17 5 110 8 206 6 148 -3
190 -8 271 -29z"/>
</g>
</svg>
